<svg xmlns="http://www.w3.org/2000/svg" width="212.083" height="159.481" viewBox="0 0 212.083 159.481"><g transform="translate(-70.884 -461.508)"><path d="M169.2,462.008a9.353,9.353,0,0,0-9.352,9.352V620.415h95.195a9.352,9.352,0,0,0,9.352-9.352V471.36h9.351v-9.352Z" fill="#fff" stroke="#1c1633" stroke-linecap="round" stroke-linejoin="round" stroke-width="1"/><line x2="76.351" transform="translate(173.278 472.561)" fill="none" stroke="#1c1633" stroke-linecap="round" stroke-linejoin="round" stroke-width="1"/><line x2="76.351" transform="translate(173.278 481.42)" fill="none" stroke="#1c1633" stroke-linecap="round" stroke-linejoin="round" stroke-width="1"/><line x2="76.351" transform="translate(173.278 490.28)" fill="none" stroke="#1c1633" stroke-linecap="round" stroke-linejoin="round" stroke-width="1"/><line x2="76.351" transform="translate(173.278 499.139)" fill="none" stroke="#1c1633" stroke-linecap="round" stroke-linejoin="round" stroke-width="1"/><line x2="76.351" transform="translate(173.278 507.999)" fill="none" stroke="#1c1633" stroke-linecap="round" stroke-linejoin="round" stroke-width="1"/><line x2="33.635" transform="translate(173.278 516.858)" fill="none" stroke="#1c1633" stroke-linecap="round" stroke-linejoin="round" stroke-width="1"/><line x2="33.635" transform="translate(173.278 525.718)" fill="none" stroke="#1c1633" stroke-linecap="round" stroke-linejoin="round" stroke-width="1"/><line x2="33.635" transform="translate(173.278 534.577)" fill="none" stroke="#1c1633" stroke-linecap="round" stroke-linejoin="round" stroke-width="1"/><line x2="33.635" transform="translate(173.278 543.437)" fill="none" stroke="#1c1633" stroke-linecap="round" stroke-linejoin="round" stroke-width="1"/><line x2="33.635" transform="translate(173.278 552.296)" fill="none" stroke="#1c1633" stroke-linecap="round" stroke-linejoin="round" stroke-width="1"/><line x2="33.635" transform="translate(173.278 561.156)" fill="none" stroke="#1c1633" stroke-linecap="round" stroke-linejoin="round" stroke-width="1"/><line x2="76.351" transform="translate(173.278 570.015)" fill="none" stroke="#1c1633" stroke-linecap="round" stroke-linejoin="round" stroke-width="1"/><line x2="76.351" transform="translate(173.278 578.875)" fill="none" stroke="#1c1633" stroke-linecap="round" stroke-linejoin="round" stroke-width="1"/><line x2="76.351" transform="translate(173.278 587.734)" fill="none" stroke="#1c1633" stroke-linecap="round" stroke-linejoin="round" stroke-width="1"/><line x2="76.351" transform="translate(173.278 596.594)" fill="none" stroke="#1c1633" stroke-linecap="round" stroke-linejoin="round" stroke-width="1"/><rect width="36.254" height="44.298" transform="translate(213.375 516.858)" fill="none" stroke="#1c1633" stroke-linecap="round" stroke-linejoin="round" stroke-width="1"/><g fill="none" stroke-linecap="round" stroke-linejoin="round"><path d="M235.153,523.043,223.88,543.414l7.583-2.181-3.923,13.739,11.585-20.518-7.662,2.169Z" stroke="none"/><path d="M 235.1529083251953 523.0426025390625 L 223.8800048828125 543.4139404296875 L 231.4627075195312 541.2324829101562 L 227.53955078125 554.9716186523438 L 239.1244201660156 534.4536743164062 L 231.4627075195312 536.6229248046875 L 235.1529083251953 523.0426025390625 M 235.1532897949219 522.0424194335938 C 235.2788543701172 522.0424194335938 235.4061431884766 522.066162109375 235.5288238525391 522.115966796875 C 235.9976654052734 522.30615234375 236.2505950927734 522.8165893554688 236.117919921875 523.3048095703125 L 232.8912811279297 535.1791381835938 L 238.8520050048828 533.4915161132812 C 238.9420928955078 533.4660034179688 239.03369140625 533.45361328125 239.1243591308594 533.45361328125 C 239.4261779785156 533.45361328125 239.7178649902344 533.590576171875 239.9105072021484 533.8355712890625 C 240.1610260009766 534.1541137695312 240.1944732666016 534.5924072265625 239.9952087402344 534.9453125 L 228.4103393554688 555.4632568359375 C 228.2281036376953 555.7860107421875 227.8903503417969 555.9718017578125 227.5391387939453 555.9718017578125 C 227.4101409912109 555.9718017578125 227.2793426513672 555.9467163085938 227.1537475585938 555.8942260742188 C 226.6862182617188 555.6986694335938 226.4388427734375 555.184326171875 226.5779876708984 554.697021484375 L 230.0059356689453 542.692138671875 L 224.1564788818359 544.3749389648438 C 224.0651092529297 544.4012451171875 223.9721221923828 544.4140014648438 223.8800659179688 544.4140014648438 C 223.5804901123047 544.4140014648438 223.2906951904297 544.279052734375 223.0978851318359 544.037109375 C 222.8458251953125 543.720703125 222.8091888427734 543.28369140625 223.0050354003906 542.9297485351562 L 234.2779388427734 522.5584106445312 C 234.4588165283203 522.2315673828125 234.7989807128906 522.0424194335938 235.1532897949219 522.0424194335938 Z" stroke="none" fill="#1c1633"/></g><path d="M273.772,462.041l-.031-.033c-.105,0-.208.012-.313.016s-.207-.016-.313-.016l.03.03a9.345,9.345,0,0,0-8.755,9.322v67.827h18.077V471.36A9.345,9.345,0,0,0,273.772,462.041Z" fill="#00e082" stroke="#1c1633" stroke-linecap="round" stroke-linejoin="round" stroke-width="1"/><path d="M245.686,611.063v-7.081H150.328v7.081a9.352,9.352,0,0,0,9.352,9.352h95.358A9.352,9.352,0,0,1,245.686,611.063Z" fill="#00e082" stroke="#1c1633" stroke-linecap="round" stroke-linejoin="round" stroke-width="1"/><circle cx="40.686" cy="40.686" r="40.686" transform="translate(141.424 499.771)" fill="#00df7c" stroke="#1c1534" stroke-linecap="round" stroke-linejoin="round" stroke-width="1"/><path d="M105.735,556.744" fill="none" stroke="#1c1534" stroke-linecap="round" stroke-linejoin="round" stroke-width="1"/><path d="M166.274,504.679" fill="#fff" stroke="#1c1534" stroke-linecap="round" stroke-linejoin="round" stroke-width="1"/><path d="M150.019,589.31l-.406.091-18.465-29.764L88.121,589.484l2.5,13.134s8.072,29.049,40.265,12.932l9.558-5.182C150.983,604.371,151.251,595.231,150.019,589.31Z" fill="#fff" stroke="#1c1534" stroke-linecap="round" stroke-linejoin="round" stroke-width="1"/><line x1="2.157" y1="6.211" transform="translate(82.898 578.665)" fill="#fff" stroke="#1c1534" stroke-linecap="round" stroke-linejoin="round" stroke-width="1"/><circle cx="40.686" cy="40.686" r="40.686" transform="translate(135.568 494.416)" fill="#fff" stroke="#1c1534" stroke-linecap="round" stroke-linejoin="round" stroke-width="1"/><line y1="2.092" x2="3.182" transform="translate(135.144 549.857)" fill="#fff" stroke="#1c1534" stroke-linecap="round" stroke-linejoin="round" stroke-width="1"/><path d="M96.138,598.29,82.39,607.328a3.146,3.146,0,0,1-4.363-.871L71.92,597.3a3.145,3.145,0,0,1,.871-4.363l13.472-8.856" fill="#fff" stroke="#1c1534" stroke-linecap="round" stroke-linejoin="round" stroke-width="1"/><path d="M96.138,598.29" fill="#fff" stroke="#1c1534" stroke-linecap="round" stroke-linejoin="round" stroke-width="1"/><line x1="2.694" y2="1.771" transform="translate(145.035 564.376)" fill="#fff" stroke="#1c1534" stroke-linecap="round" stroke-linejoin="round" stroke-width="1"/><circle cx="35.365" cy="35.365" r="35.365" transform="translate(140.889 499.737)" fill="#fff" stroke="#1c1534" stroke-linecap="round" stroke-linejoin="round" stroke-width="1"/><ellipse cx="34.83" cy="21.502" rx="34.83" ry="21.502" transform="translate(141.424 513.494)" fill="#fff" stroke="#1c1534" stroke-linecap="round" stroke-linejoin="round" stroke-width="1"/><path d="M190.4,516.142a20.316,20.316,0,1,1-28.282.053" fill="none" stroke="#1c1534" stroke-linecap="round" stroke-linejoin="round" stroke-width="1"/><line x2="9.6" y2="14.389" transform="translate(77.597 589.732)" fill="#fff" stroke="#1c1534" stroke-linecap="round" stroke-linejoin="round" stroke-width="1"/><path d="M146.249,575.026a7.334,7.334,0,0,0-.4-7.71l-13.967-20.048a7.333,7.333,0,0,0-10.179-1.82h0a7.333,7.333,0,0,0-1.82,10.179l13.967,20.049a7.39,7.39,0,0,0,.962,1.12" fill="#fff" stroke="#1c1534" stroke-linecap="round" stroke-linejoin="round" stroke-width="1"/><path d="M134.568,576.966a7.218,7.218,0,0,0-.717-1.29l-13.967-20.049a7.333,7.333,0,0,0-10.179-1.82h0a7.333,7.333,0,0,0-1.82,10.179l11.322,16.252" fill="#fff" stroke="#1c1534" stroke-linecap="round" stroke-linejoin="round" stroke-width="1"/><path d="M119.207,580.238l-11.322-16.252a7.333,7.333,0,0,0-10.179-1.819h0a7.333,7.333,0,0,0-1.82,10.179l13.967,20.048a7.334,7.334,0,0,0,10.18,1.82h0a7.22,7.22,0,0,0,1.119-.962" fill="#fff" stroke="#1c1534" stroke-linecap="round" stroke-linejoin="round" stroke-width="1"/><rect width="14.624" height="39.058" rx="6.399" transform="matrix(-0.821, 0.572, -0.572, -0.821, 114.033, 598.394)" fill="#fff" stroke="#1c1534" stroke-linecap="round" stroke-linejoin="round" stroke-width="1"/><rect width="14.624" height="39.058" rx="6.399" transform="matrix(0.153, 0.988, -0.988, 0.153, 153.744, 574.051)" fill="#fff" stroke="#1c1534" stroke-linecap="round" stroke-linejoin="round" stroke-width="1"/><path d="M102.982,530.13c-5.648,0-10.983,0-10.983-13.208a.141.141,0,1,0-.283,0c0,13.208-5.335,13.208-10.983,13.208a.142.142,0,1,0,0,.283c5.648,0,10.983,0,10.983,13.208a.141.141,0,0,0,.283,0c0-13.208,5.335-13.208,10.983-13.208h0a.142.142,0,0,0,0-.283Z" fill="#00df7c" stroke="#1c1534" stroke-linecap="round" stroke-linejoin="round" stroke-width="1"/><path d="M133.762,493.274c-5.648,0-10.982,0-10.982-13.208a.142.142,0,0,0-.284,0c0,13.208-5.335,13.208-10.983,13.208a.142.142,0,0,0,0,.284c5.648,0,10.983,0,10.983,13.207a.142.142,0,1,0,.284,0c0-13.207,5.334-13.207,10.982-13.207h0a.142.142,0,0,0,0-.284Z" fill="#00df7c" stroke="#1c1534" stroke-linecap="round" stroke-linejoin="round" stroke-width="1"/></g></svg>