<svg xmlns="http://www.w3.org/2000/svg" width="358.69" height="386.61" viewBox="0 0 717.378 773.22"><g transform="translate(-1063.731 -148.525)"><rect width="597.018" height="384.636" transform="translate(1152.298 486.082) rotate(-5)" fill="#fff" stroke="#1c1534" stroke-miterlimit="10" stroke-width="1"/><line y1="52.033" x2="594.746" transform="translate(1157.342 492.813)" fill="none" stroke="#1c1534" stroke-linecap="round" stroke-linejoin="round" stroke-width="1"/><rect width="597.018" height="384.636" transform="translate(1097.796 149.066) rotate(5)" fill="#fff" stroke="#1c1534" stroke-miterlimit="10" stroke-width="1"/><path d="M1504.495,877.7l3.4,7.591c3.15,6.219,8.8,11.4,16.9,14.745,23.9,9.545,58.9.2,77.168-20.692,11.126-13.069,13.074-27.6,7.147-38.981l-4.351-9.342" fill="#fff" stroke="#1c1534" stroke-linecap="round" stroke-linejoin="round" stroke-width="1"/><path d="M1520.866,891.477c-23.341-9.638-26.349-34.577-7.727-55.533,18.065-20.863,50.527-29.777,73.515-20.079,23.545,9.6,29.092,34.116,11.381,54.919C1579.767,891.68,1544.765,901.021,1520.866,891.477Z" fill="#fff" stroke="#1c1534" stroke-linecap="round" stroke-linejoin="round" stroke-width="1"/><path d="M1571.685,840.364c-.79,2.344-3.762,4.145-6.7,4.1a53.621,53.621,0,0,0-10.627.769c-4.157.851-7.962,2.189-7.923,3.05.186,4.058,30.4-5.664,31.242,6.029.58,8.021-7,13.108-15.6,15.918h0c.133,2.3-2.305,4.692-5.446,5.332l-1.423.29c-3.141.641-5.777-.712-5.886-3.021h0a59.966,59.966,0,0,1-12,.484c-2.732-.192-4.342-1.989-3.731-4.205l.58-2.108c.692-2.524,3.94-4.575,7.072-4.459a64.137,64.137,0,0,0,13.4-.792c4.96-1.013,8.952-2.822,8.882-3.988-.158-2.638-31.255,6.883-31.676-5.874-.234-7.087,8.155-12.1,15.79-14.778l-.018-.369c-.109-2.309,2.254-4.683,5.278-5.3l1.289-.264c3.023-.621,5.583.744,5.717,3.049l.032.552a66.567,66.567,0,0,1,8.1-.482c3.083.006,4.983,2.07,4.157,4.539Z" fill="#00df7c" stroke="#1c1534" stroke-linecap="round" stroke-linejoin="round" stroke-width="1"/><path d="M1077.588,681.509c-.1,7.757,5.129,15.944,15.871,22.892,22.212,14.522,58.308,18.337,79.662,7.619,9.534-5.136,14.362-12.393,14.7-20.116l.019-7.7-110.248-11Z" fill="#fff" stroke="#1c1534" stroke-linecap="round" stroke-linejoin="round" stroke-width="1"/><path d="M1093.459,696.232c-21.682-14.025-20.9-33.095.8-43.5,21.162-10.9,54.842-9.356,76.187,4.352,21.875,14.206,23.5,35.547,2.679,46.764C1151.767,714.569,1115.671,710.754,1093.459,696.232Z" fill="#fff" stroke="#1c1534" stroke-linecap="round" stroke-linejoin="round" stroke-width="1"/><path d="M1151.746,672.158c-1.149,1.6-4.379,2.154-7.285,1.283a71.141,71.141,0,0,0-10.67-2.415c-4.259-.519-8.244-.567-8.338.1-.441,3.148,31.054,4.255,30.069,13.641-.675,6.438-8.979,8.134-17.941,7.733h0c-.225,1.817-3.011,2.922-6.224,2.468l-1.455-.206c-3.213-.454-5.616-2.276-5.368-4.07h0a83.133,83.133,0,0,1-11.975-3.187c-2.68-.949-4-2.776-3.055-4.267l.9-1.421c1.074-1.7,4.612-2.317,7.7-1.324a87.792,87.792,0,0,0,13.415,3.29c5.077.672,9.316.445,9.428-.476.252-2.084-32.072-3.816-30.533-13.546.854-5.405,9.958-6.884,17.957-6.829l.039-.287c.248-1.794,2.963-2.966,6.064-2.618l1.322.149c3.1.349,5.432,2.1,5.208,3.92l-.054.435c2.879.521,5.643,1.178,8.125,1.877,3.061.865,4.626,3.007,3.421,4.7Z" fill="#00df7c" stroke="#1c1534" stroke-linecap="round" stroke-linejoin="round" stroke-width="1"/><rect width="281.482" height="59.326" transform="matrix(0.996, -0.087, 0.087, 0.996, 1209.096, 779.145)" fill="#fff" stroke="#1c1534" stroke-linecap="round" stroke-linejoin="round" stroke-width="1"/><path d="M1233.618,815.649l-2.051.179-1.809-20.662c4.66-.407,8.574-.78,12.489-1.123,5.436-.476,8.337,1.556,8.658,5.222s-2.6,6.051-5.989,6.692c1.653,4.582,2.641,6.938,5.035,6.729a6.974,6.974,0,0,0,2.167-.628l.173,1.988a9.553,9.553,0,0,1-2.873.784c-3.51.307-4.728-2.874-6.717-8.429l-9.818.859Zm10.007-11.207c3.325-.291,4.987-2.753,4.8-4.867-.223-2.548-2.248-3.873-6.442-3.506-2.766.243-5.683.529-10,.938l.733,8.389Z" fill="#1c1534"/><path d="M1266.051,811.684l.18,2.05-1.615.142-.182-2.081c-2.757-.01-6.386-.694-7.921-3.941.569-.3,1.142-.538,1.71-.838,1.024,2.384,4.627,3.133,7.268,2.9,2.888-.253,5.405-1.912,5.22-4.025-.44-5.033-13.77.046-14.371-6.821-.283-3.231,3.017-4.866,6.514-5.329l-.209-2.391,1.615-.142.212,2.423c3.007.019,5.926,1.173,7.056,3.7l-1.675.9c-1.009-2.229-3.74-3.024-6.318-2.8-2.7.237-5.358,1.377-5.184,3.366.413,4.723,13.76-.171,14.371,6.819C1273,808.791,1269.858,811.163,1266.051,811.684Z" fill="#1c1534"/><path d="M1306.4,790.058A60.929,60.929,0,0,0,1296.365,811l-2.209-.214A63.364,63.364,0,0,1,1303.3,790.8l-18.114,1.585-.18-2.051,20.26-1.773Z" fill="#1c1534"/><path d="M1312.745,807.1a2.025,2.025,0,0,1,1.949-2.424,2.086,2.086,0,0,1,2.4,1.981,2.183,2.183,0,0,1-4.344.443Z" fill="#1c1534"/><path d="M1322.9,797.506c-.6-6.835,3.372-11.566,9.959-12.143,6.618-.579,11.446,3.445,12.02,10,.6,6.835-3.4,11.569-9.989,12.145C1328.268,808.088,1323.468,804.062,1322.9,797.506Zm10.136-10.122c-5.345.467-8.523,4.221-8.036,9.782.481,5.5,4.341,8.824,9.716,8.354,5.314-.465,8.524-4.221,8.037-9.783C1342.267,790.238,1338.406,786.913,1333.031,787.384Z" fill="#1c1534"/><path d="M1351.328,795.019c-.6-6.836,3.372-11.567,9.958-12.143,6.618-.579,11.447,3.444,12.021,10,.6,6.836-3.4,11.568-9.989,12.146C1356.7,805.6,1351.9,801.574,1351.328,795.019Zm10.134-10.123c-5.343.467-8.521,4.22-8.035,9.782.482,5.5,4.342,8.825,9.717,8.354,5.313-.465,8.522-4.22,8.035-9.782C1370.7,787.751,1366.838,784.426,1361.462,784.9Z" fill="#1c1534"/><path d="M1379.76,792.53c-.6-6.835,3.372-11.565,9.958-12.141,6.618-.579,11.447,3.444,12.022,10,.6,6.836-3.4,11.568-9.991,12.144C1385.132,803.112,1380.333,799.086,1379.76,792.53Zm10.135-10.122c-5.344.468-8.522,4.221-8.036,9.783.481,5.5,4.343,8.824,9.717,8.354,5.314-.465,8.523-4.221,8.036-9.782C1399.131,785.264,1395.271,781.938,1389.9,782.408Z" fill="#1c1534"/><path d="M1410.722,804.286l-1.054-.6a16.4,16.4,0,0,0,1.606-3.116c-.063.006-.122.043-.183.048a2.14,2.14,0,0,1-2.4-1.981,1.985,1.985,0,0,1,1.924-2.361,2.221,2.221,0,0,1,2.411,2.168C1413.16,799.94,1412.584,801.587,1410.722,804.286Z" fill="#1c1534"/><path d="M1418.416,789.149c-.6-6.836,3.372-11.567,9.958-12.143,6.619-.579,11.447,3.444,12.021,10,.6,6.835-3.4,11.568-9.989,12.144C1423.789,799.731,1418.99,795.7,1418.416,789.149Zm10.135-10.123c-5.344.467-8.522,4.221-8.036,9.783.482,5.5,4.342,8.824,9.717,8.353,5.313-.465,8.523-4.22,8.036-9.782C1437.788,781.881,1433.926,778.556,1428.551,779.026Z" fill="#1c1534"/><path d="M1446.849,786.661c-.6-6.836,3.371-11.566,9.958-12.142,6.617-.579,11.446,3.444,12.021,10,.6,6.836-3.4,11.568-9.99,12.145C1452.221,797.242,1447.422,793.217,1446.849,786.661Zm10.135-10.123c-5.345.468-8.523,4.221-8.036,9.782.481,5.5,4.342,8.826,9.717,8.355,5.313-.465,8.522-4.221,8.035-9.782C1466.219,779.394,1462.359,776.068,1456.984,776.538Z" fill="#1c1534"/><rect width="295.201" height="59.326" transform="matrix(0.996, 0.087, -0.087, 0.996, 1105.598, 440.157)" fill="#fff" stroke="#1c1534" stroke-linecap="round" stroke-linejoin="round" stroke-width="1"/><path d="M1123.329,480.453l-2.051-.179,1.808-20.662c4.661.408,8.578.719,12.493,1.062,5.436.476,7.941,2.98,7.621,6.646s-3.613,5.508-7.061,5.55c.832,4.8,1.4,7.292,3.79,7.5a6.955,6.955,0,0,0,2.243-.241l-.174,1.988a9.581,9.581,0,0,1-2.966.273c-3.511-.307-4.159-3.651-5.152-9.468l-9.817-.859Zm11.8-9.3c3.325.291,5.389-1.845,5.574-3.958.223-2.548-1.541-4.205-5.736-4.572-2.765-.242-5.688-.466-10.01-.813l-.733,8.389Z" fill="#1c1534"/><path d="M1155.959,482.18l-.179,2.051-1.615-.141.181-2.081c-2.712-.488-6.167-1.793-7.116-5.256.613-.2,1.218-.332,1.831-.529.594,2.525,4.012,3.888,6.652,4.119,2.889.253,5.656-.944,5.84-3.058.441-5.033-13.569-2.345-12.969-9.212.284-3.231,3.818-4.268,7.342-4.116l.209-2.392,1.615.141-.211,2.424c2.958.54,5.632,2.183,6.305,4.872l-1.805.593c-.607-2.37-3.159-3.627-5.737-3.852-2.7-.237-5.515.426-5.689,2.414-.413,4.723,13.58,2.221,12.969,9.212C1163.3,480.538,1159.8,482.329,1155.959,482.18Z" fill="#1c1534"/><path d="M1180.721,485.474l1.629-18.611-3.418-.3.18-2.051,5.437.475-1.808,20.662Z" fill="#1c1534"/><path d="M1191.779,476.11c.6-6.835,5.329-10.8,11.915-10.229,6.618.58,10.676,5.38,10.1,11.936-.6,6.836-5.359,10.8-11.946,10.226C1195.232,487.464,1191.206,482.666,1191.779,476.11Zm11.738-8.209c-5.344-.467-9.125,2.677-9.611,8.239-.482,5.5,2.742,9.444,8.117,9.914,5.313.465,9.126-2.676,9.613-8.238C1212.117,472.317,1208.893,468.372,1203.517,467.9Z" fill="#1c1534"/><path d="M1219.548,487.243a2.027,2.027,0,0,1,2.341-2.049,2.089,2.089,0,0,1,2.016,2.369,2.184,2.184,0,0,1-4.357-.32Z" fill="#1c1534"/><path d="M1231.212,479.561c.6-6.836,5.328-10.806,11.915-10.229,6.618.579,10.674,5.38,10.1,11.936-.6,6.835-5.358,10.8-11.946,10.225C1234.664,490.914,1230.639,486.116,1231.212,479.561Zm11.739-8.209c-5.345-.468-9.127,2.676-9.614,8.238-.481,5.5,2.743,9.444,8.118,9.915,5.314.464,9.127-2.677,9.614-8.239C1251.549,475.767,1248.326,471.822,1242.951,471.352Z" fill="#1c1534"/><path d="M1259.644,482.048c.6-6.835,5.328-10.8,11.915-10.229,6.617.58,10.675,5.38,10.1,11.936-.6,6.836-5.36,10.8-11.947,10.226C1263.1,493.4,1259.071,488.6,1259.644,482.048Zm11.738-8.209c-5.344-.467-9.126,2.677-9.612,8.239-.481,5.5,2.742,9.444,8.117,9.914,5.314.465,9.126-2.676,9.613-8.238C1279.981,478.255,1276.757,474.31,1271.382,473.839Z" fill="#1c1534"/><path d="M1288.077,484.536c.6-6.836,5.328-10.805,11.915-10.229,6.617.579,10.674,5.38,10.1,11.936-.6,6.836-5.359,10.8-11.946,10.225C1291.529,495.889,1287.5,491.091,1288.077,484.536Zm11.738-8.209c-5.345-.468-9.126,2.677-9.612,8.238-.482,5.5,2.742,9.444,8.117,9.915,5.313.464,9.126-2.677,9.613-8.238C1308.414,480.743,1305.19,476.8,1299.815,476.327Z" fill="#1c1534"/><path d="M1316.526,501.489l-.935-.77a16.445,16.445,0,0,0,2.123-2.789c-.062-.006-.127.02-.188.015a2.139,2.139,0,0,1-2.017-2.368,1.983,1.983,0,0,1,2.3-1.989,2.22,2.22,0,0,1,2,2.553C1319.681,497.632,1318.828,499.155,1316.526,501.489Z" fill="#1c1534"/><path d="M1326.731,487.918c.6-6.836,5.329-10.8,11.916-10.229,6.618.579,10.675,5.38,10.1,11.936-.6,6.836-5.36,10.8-11.947,10.226C1330.184,499.272,1326.158,494.473,1326.731,487.918Zm11.739-8.209c-5.344-.467-9.126,2.677-9.612,8.238-.482,5.5,2.742,9.445,8.117,9.915,5.314.465,9.127-2.677,9.614-8.238C1347.07,484.125,1343.846,480.179,1338.47,479.709Z" fill="#1c1534"/><path d="M1355.164,490.4c.6-6.835,5.329-10.8,11.915-10.228,6.618.579,10.675,5.38,10.1,11.936-.6,6.835-5.359,10.8-11.946,10.225C1358.617,501.759,1354.59,496.961,1355.164,490.4ZM1366.9,482.2c-5.344-.468-9.125,2.677-9.612,8.238-.481,5.5,2.743,9.444,8.118,9.914,5.313.466,9.126-2.676,9.613-8.238C1375.5,486.612,1372.278,482.667,1366.9,482.2Z" fill="#1c1534"/><line y1="59.1" x2="5.171" transform="translate(1423.774 468.209)" fill="#fff" stroke="#1c1534" stroke-linecap="round" stroke-linejoin="round" stroke-width="1"/><line y1="59.1" x2="5.171" transform="translate(1438.371 469.486)" fill="#fff" stroke="#1c1534" stroke-linecap="round" stroke-linejoin="round" stroke-width="1"/><line y1="59.1" x2="5.171" transform="translate(1452.967 470.763)" fill="#fff" stroke="#1c1534" stroke-linecap="round" stroke-linejoin="round" stroke-width="1"/><line y1="59.1" x2="5.171" transform="translate(1467.564 472.04)" fill="#fff" stroke="#1c1534" stroke-linecap="round" stroke-linejoin="round" stroke-width="1"/><line y1="59.1" x2="5.171" transform="translate(1482.16 473.317)" fill="#fff" stroke="#1c1534" stroke-linecap="round" stroke-linejoin="round" stroke-width="1"/><line y1="59.1" x2="5.171" transform="translate(1496.757 474.594)" fill="#fff" stroke="#1c1534" stroke-linecap="round" stroke-linejoin="round" stroke-width="1"/><line y1="59.1" x2="5.171" transform="translate(1511.353 475.871)" fill="#fff" stroke="#1c1534" stroke-linecap="round" stroke-linejoin="round" stroke-width="1"/><line y1="59.1" x2="5.171" transform="translate(1525.949 477.148)" fill="#fff" stroke="#1c1534" stroke-linecap="round" stroke-linejoin="round" stroke-width="1"/><line y1="59.1" x2="5.171" transform="translate(1540.546 478.425)" fill="#fff" stroke="#1c1534" stroke-linecap="round" stroke-linejoin="round" stroke-width="1"/><line y1="59.1" x2="5.171" transform="translate(1555.142 479.702)" fill="#fff" stroke="#1c1534" stroke-linecap="round" stroke-linejoin="round" stroke-width="1"/><line y1="59.1" x2="5.171" transform="translate(1569.739 480.979)" fill="#fff" stroke="#1c1534" stroke-linecap="round" stroke-linejoin="round" stroke-width="1"/><line y1="59.1" x2="5.171" transform="translate(1584.335 482.256)" fill="#fff" stroke="#1c1534" stroke-linecap="round" stroke-linejoin="round" stroke-width="1"/><line y1="59.1" x2="5.171" transform="translate(1598.932 483.533)" fill="#fff" stroke="#1c1534" stroke-linecap="round" stroke-linejoin="round" stroke-width="1"/><line y1="59.1" x2="5.171" transform="translate(1613.528 484.81)" fill="#fff" stroke="#1c1534" stroke-linecap="round" stroke-linejoin="round" stroke-width="1"/><line y1="59.1" x2="5.171" transform="translate(1628.125 486.087)" fill="#fff" stroke="#1c1534" stroke-linecap="round" stroke-linejoin="round" stroke-width="1"/><line x1="5.171" y1="59.1" transform="translate(1536.927 749.918)" fill="#fff" stroke="#1c1534" stroke-linecap="round" stroke-linejoin="round" stroke-width="1"/><line x1="5.171" y1="59.1" transform="translate(1551.524 748.641)" fill="#fff" stroke="#1c1534" stroke-linecap="round" stroke-linejoin="round" stroke-width="1"/><line x1="5.171" y1="59.1" transform="translate(1566.12 747.364)" fill="#fff" stroke="#1c1534" stroke-linecap="round" stroke-linejoin="round" stroke-width="1"/><line x1="5.171" y1="59.1" transform="translate(1580.717 746.087)" fill="#fff" stroke="#1c1534" stroke-linecap="round" stroke-linejoin="round" stroke-width="1"/><line x1="5.171" y1="59.1" transform="translate(1595.313 744.81)" fill="#fff" stroke="#1c1534" stroke-linecap="round" stroke-linejoin="round" stroke-width="1"/><line x1="5.171" y1="59.1" transform="translate(1609.909 743.533)" fill="#fff" stroke="#1c1534" stroke-linecap="round" stroke-linejoin="round" stroke-width="1"/><line x1="5.171" y1="59.1" transform="translate(1624.506 742.256)" fill="#fff" stroke="#1c1534" stroke-linecap="round" stroke-linejoin="round" stroke-width="1"/><line x1="5.171" y1="59.1" transform="translate(1639.102 740.979)" fill="#fff" stroke="#1c1534" stroke-linecap="round" stroke-linejoin="round" stroke-width="1"/><line x1="5.171" y1="59.1" transform="translate(1653.699 739.702)" fill="#fff" stroke="#1c1534" stroke-linecap="round" stroke-linejoin="round" stroke-width="1"/><line x1="5.171" y1="59.1" transform="translate(1668.295 738.425)" fill="#fff" stroke="#1c1534" stroke-linecap="round" stroke-linejoin="round" stroke-width="1"/><line x1="5.171" y1="59.1" transform="translate(1682.892 737.148)" fill="#fff" stroke="#1c1534" stroke-linecap="round" stroke-linejoin="round" stroke-width="1"/><line x1="5.171" y1="59.1" transform="translate(1697.488 735.871)" fill="#fff" stroke="#1c1534" stroke-linecap="round" stroke-linejoin="round" stroke-width="1"/><line x1="5.171" y1="59.1" transform="translate(1712.085 734.594)" fill="#fff" stroke="#1c1534" stroke-linecap="round" stroke-linejoin="round" stroke-width="1"/><line x1="5.171" y1="59.1" transform="translate(1726.681 733.317)" fill="#fff" stroke="#1c1534" stroke-linecap="round" stroke-linejoin="round" stroke-width="1"/><line x1="5.171" y1="59.1" transform="translate(1741.278 732.04)" fill="#fff" stroke="#1c1534" stroke-linecap="round" stroke-linejoin="round" stroke-width="1"/><path d="M1588.121,609.495l-35.1,8.188,12.649,33.808-33.455-14.807-3.1,36.373-27.21-24.526-11.732,34.663-21.8-29.441-17.585,32.123-16.853-32.53-22.243,29.11-11.738-34.688-26.584,25.208-5.537-36.174-31.056,19.427,3.266-36.358-35.519,8.77,18.33-31.1-33.14-14.156,35.1-8.189-12.649-33.808L1345.62,556.2l3.1-36.373,27.21,24.526,11.732-34.663,21.8,29.441,17.585-32.124,16.853,32.53,22.243-29.11,11.738,34.688,26.584-25.208L1510,556.081l31.056-19.427-3.266,36.358,35.519-8.77-18.33,31.1Z" fill="#fff"/><path d="M1588.121,609.495l-35.1,8.188,12.649,33.808-33.455-14.807-3.1,36.373-27.21-24.526-11.732,34.663-21.8-29.441-17.585,32.123-16.853-32.53-22.243,29.11-11.738-34.688-26.584,25.208-5.537-36.174-31.056,19.427,3.266-36.358-35.519,8.77,18.33-31.1-33.14-14.156,35.1-8.189-12.649-33.808L1345.62,556.2l3.1-36.373,27.21,24.526,11.732-34.663,21.8,29.441,17.585-32.124,16.853,32.53,22.243-29.11,11.738,34.688,26.584-25.208L1510,556.081l31.056-19.427-3.266,36.358,35.519-8.77-18.33,31.1Z" fill="none" stroke="#1c1534" stroke-miterlimit="10" stroke-width="1"/><path d="M1587.554,608.928l-35.1,8.188,12.649,33.808-33.455-14.807-3.1,36.373-27.21-24.526-11.732,34.663-21.8-29.441-17.585,32.124-16.853-32.53-22.243,29.11L1399.393,647.2l-26.584,25.208-5.537-36.174-31.056,19.427,3.266-36.358-35.519,8.77,18.33-31.1-33.14-14.156,35.1-8.188L1311.6,540.825l33.455,14.807,3.1-36.373,27.21,24.526,11.732-34.663,21.8,29.441,17.585-32.124,16.852,32.53,22.244-29.11,11.738,34.689,26.584-25.208,5.537,36.174,31.056-19.427-3.266,36.358,35.519-8.77-18.33,31.1Z" fill="#fff"/><path d="M1587.554,608.928l-35.1,8.188,12.649,33.808-33.455-14.807-3.1,36.373-27.21-24.526-11.732,34.663-21.8-29.441-17.585,32.124-16.853-32.53-22.243,29.11L1399.393,647.2l-26.584,25.208-5.537-36.174-31.056,19.427,3.266-36.358-35.519,8.77,18.33-31.1-33.14-14.156,35.1-8.188L1311.6,540.825l33.455,14.807,3.1-36.373,27.21,24.526,11.732-34.663,21.8,29.441,17.585-32.124,16.852,32.53,22.244-29.11,11.738,34.689,26.584-25.208,5.537,36.174,31.056-19.427-3.266,36.358,35.519-8.77-18.33,31.1Z" fill="none" stroke="#1c1534" stroke-miterlimit="10" stroke-width="1"/><path d="M1586.988,608.362l-35.1,8.188,12.649,33.808-33.455-14.807-3.1,36.373L1500.78,647.4l-11.732,34.663-21.8-29.441-17.585,32.124-16.852-32.53-22.243,29.11-11.738-34.688-26.584,25.208-5.537-36.174L1335.65,655.1l3.266-36.358-35.519,8.77,18.33-31.1-33.14-14.156,35.1-8.188-12.649-33.808,33.455,14.807,3.1-36.373,27.21,24.526,11.732-34.663,21.8,29.441,17.585-32.124,16.853,32.53,22.243-29.11,11.738,34.689,26.584-25.208,5.537,36.174,31.056-19.427-3.266,36.358,35.519-8.77-18.33,31.1Z" fill="#fff"/><path d="M1586.988,608.362l-35.1,8.188,12.649,33.808-33.455-14.807-3.1,36.373L1500.78,647.4l-11.732,34.663-21.8-29.441-17.585,32.124-16.852-32.53-22.243,29.11-11.738-34.688-26.584,25.208-5.537-36.174L1335.65,655.1l3.266-36.358-35.519,8.77,18.33-31.1-33.14-14.156,35.1-8.188-12.649-33.808,33.455,14.807,3.1-36.373,27.21,24.526,11.732-34.663,21.8,29.441,17.585-32.124,16.853,32.53,22.243-29.11,11.738,34.689,26.584-25.208,5.537,36.174,31.056-19.427-3.266,36.358,35.519-8.77-18.33,31.1Z" fill="none" stroke="#1c1534" stroke-miterlimit="10" stroke-width="1"/><path d="M1586.422,607.8l-35.1,8.189,12.649,33.808-33.455-14.807-3.1,36.373-27.21-24.526L1488.481,681.5l-21.8-29.441-17.585,32.123-16.853-32.53L1410,680.758l-11.738-34.688-26.584,25.208L1366.14,635.1l-31.056,19.427,3.266-36.358-35.519,8.77,18.33-31.1-33.14-14.156,35.1-8.188-12.649-33.808,33.455,14.807,3.1-36.373,27.21,24.526,11.732-34.663,21.8,29.441,17.585-32.124,16.852,32.53,22.243-29.11,11.738,34.688,26.584-25.208,5.537,36.174,31.056-19.427-3.266,36.358,35.519-8.77-18.33,31.1Z" fill="#fff"/><path d="M1586.422,607.8l-35.1,8.189,12.649,33.808-33.455-14.807-3.1,36.373-27.21-24.526L1488.481,681.5l-21.8-29.441-17.585,32.123-16.853-32.53L1410,680.758l-11.738-34.688-26.584,25.208L1366.14,635.1l-31.056,19.427,3.266-36.358-35.519,8.77,18.33-31.1-33.14-14.156,35.1-8.188-12.649-33.808,33.455,14.807,3.1-36.373,27.21,24.526,11.732-34.663,21.8,29.441,17.585-32.124,16.852,32.53,22.243-29.11,11.738,34.688,26.584-25.208,5.537,36.174,31.056-19.427-3.266,36.358,35.519-8.77-18.33,31.1Z" fill="none" stroke="#1c1534" stroke-miterlimit="10" stroke-width="1"/><path d="M1585.856,607.23l-35.1,8.189,12.649,33.808-33.455-14.807-3.1,36.373-27.21-24.526-11.732,34.663-21.8-29.441-17.585,32.123-16.852-32.53-22.244,29.11L1397.695,645.5l-26.584,25.208-5.537-36.174-31.056,19.427,3.266-36.358-35.519,8.77,18.33-31.1-33.14-14.156,35.1-8.189L1309.9,539.127l33.455,14.807,3.1-36.373,27.21,24.526,11.732-34.663,21.8,29.441,17.585-32.123,16.853,32.53,22.243-29.11,11.738,34.688,26.584-25.208,5.537,36.174,31.056-19.427-3.266,36.358,35.519-8.77-18.33,31.1Z" fill="#fff"/><path d="M1585.856,607.23l-35.1,8.189,12.649,33.808-33.455-14.807-3.1,36.373-27.21-24.526-11.732,34.663-21.8-29.441-17.585,32.123-16.852-32.53-22.244,29.11L1397.695,645.5l-26.584,25.208-5.537-36.174-31.056,19.427,3.266-36.358-35.519,8.77,18.33-31.1-33.14-14.156,35.1-8.189L1309.9,539.127l33.455,14.807,3.1-36.373,27.21,24.526,11.732-34.663,21.8,29.441,17.585-32.123,16.853,32.53,22.243-29.11,11.738,34.688,26.584-25.208,5.537,36.174,31.056-19.427-3.266,36.358,35.519-8.77-18.33,31.1Z" fill="none" stroke="#1c1534" stroke-miterlimit="10" stroke-width="1"/><path d="M1585.29,606.664l-35.1,8.189,12.649,33.808-33.455-14.807-3.1,36.373-27.21-24.526-11.732,34.663-21.8-29.441-17.585,32.123-16.853-32.53-22.243,29.11-11.738-34.688-26.584,25.208-5.537-36.174L1333.951,653.4l3.266-36.358-35.519,8.77,18.33-31.1-33.14-14.156,35.1-8.189-12.649-33.808,33.455,14.807,3.1-36.373,27.21,24.526,11.732-34.663,21.8,29.441,17.585-32.123,16.853,32.53,22.243-29.11,11.738,34.688,26.584-25.208,5.537,36.174,31.056-19.427-3.266,36.358,35.519-8.77-18.33,31.1Z" fill="#fff"/><path d="M1585.29,606.664l-35.1,8.189,12.649,33.808-33.455-14.807-3.1,36.373-27.21-24.526-11.732,34.663-21.8-29.441-17.585,32.123-16.853-32.53-22.243,29.11-11.738-34.688-26.584,25.208-5.537-36.174L1333.951,653.4l3.266-36.358-35.519,8.77,18.33-31.1-33.14-14.156,35.1-8.189-12.649-33.808,33.455,14.807,3.1-36.373,27.21,24.526,11.732-34.663,21.8,29.441,17.585-32.123,16.853,32.53,22.243-29.11,11.738,34.688,26.584-25.208,5.537,36.174,31.056-19.427-3.266,36.358,35.519-8.77-18.33,31.1Z" fill="none" stroke="#1c1534" stroke-miterlimit="10" stroke-width="1"/><path d="M1584.723,606.1l-35.1,8.188,12.649,33.808-33.455-14.807-3.1,36.373-27.21-24.526L1486.782,679.8l-21.8-29.441L1447.4,682.48l-16.853-32.53-22.243,29.11-11.738-34.688-26.584,25.208-5.537-36.174-31.056,19.427,3.266-36.358-35.519,8.77,18.33-31.1-33.14-14.156,35.1-8.189-12.649-33.808,33.455,14.807,3.1-36.373,27.21,24.526,11.732-34.663,21.8,29.441,17.585-32.124,16.852,32.53,22.244-29.11,11.738,34.689,26.584-25.208,5.537,36.174,31.056-19.427-3.266,36.358,35.519-8.77-18.33,31.1Z" fill="#fff"/><path d="M1584.723,606.1l-35.1,8.188,12.649,33.808-33.455-14.807-3.1,36.373-27.21-24.526L1486.782,679.8l-21.8-29.441L1447.4,682.48l-16.853-32.53-22.243,29.11-11.738-34.688-26.584,25.208-5.537-36.174-31.056,19.427,3.266-36.358-35.519,8.77,18.33-31.1-33.14-14.156,35.1-8.189-12.649-33.808,33.455,14.807,3.1-36.373,27.21,24.526,11.732-34.663,21.8,29.441,17.585-32.124,16.852,32.53,22.244-29.11,11.738,34.689,26.584-25.208,5.537,36.174,31.056-19.427-3.266,36.358,35.519-8.77-18.33,31.1Z" fill="none" stroke="#1c1534" stroke-miterlimit="10" stroke-width="1"/><path d="M1584.157,605.531l-35.1,8.188,12.649,33.808-33.455-14.807-3.1,36.373-27.21-24.526-11.732,34.663-21.8-29.441-17.585,32.124-16.852-32.53-22.243,29.11L1396,643.8l-26.584,25.208-5.537-36.174-31.056,19.427,3.266-36.358-35.519,8.77,18.33-31.1-33.14-14.156,35.1-8.188L1308.2,537.428l33.455,14.807,3.1-36.373,27.21,24.526,11.732-34.663,21.8,29.441,17.585-32.124,16.853,32.53,22.243-29.11,11.738,34.689,26.584-25.208,5.537,36.174,31.056-19.427-3.266,36.358,35.519-8.77-18.33,31.1Z" fill="#fff"/><path d="M1584.157,605.531l-35.1,8.188,12.649,33.808-33.455-14.807-3.1,36.373-27.21-24.526-11.732,34.663-21.8-29.441-17.585,32.124-16.852-32.53-22.243,29.11L1396,643.8l-26.584,25.208-5.537-36.174-31.056,19.427,3.266-36.358-35.519,8.77,18.33-31.1-33.14-14.156,35.1-8.188L1308.2,537.428l33.455,14.807,3.1-36.373,27.21,24.526,11.732-34.663,21.8,29.441,17.585-32.124,16.853,32.53,22.243-29.11,11.738,34.689,26.584-25.208,5.537,36.174,31.056-19.427-3.266,36.358,35.519-8.77-18.33,31.1Z" fill="none" stroke="#1c1534" stroke-miterlimit="10" stroke-width="1"/><path d="M1402.177,579.124c-.263,3.015-1.832,6.485-4.654,7.631,3.717,2.35,4.324,6.264,4.051,9.4-.891,10.176-11.186,14.275-21.489,13.373-10.613-.928-21.332-7.183-21.822-17.478l10.674-3.37c1.861,5.479,6.828,7.3,10.912,7.663,2.574.225,8.043.64,8.264-1.872.3-3.454-3.906-3.823-10.942-4.438l.782-8.919c7.412.649,10.783.438,11.025-2.326.16-1.821-3.127-3.312-6.9-3.641-4.4-.385-9.713.353-11.588,4.429l-8.541-5.115c4.478-12.14,19.308-10.905,23.265-10.559C1394.2,564.692,1403.013,569.577,1402.177,579.124Z" fill="#00df7c" stroke="#1c1534" stroke-linecap="round" stroke-linejoin="round" stroke-width="1"/><path d="M1409.826,589.413c1.2-13.755,10.765-21.779,24.019-20.619,13.379,1.17,21.578,10.875,20.418,24.128-1.2,13.754-10.828,21.773-24.142,20.608C1416.742,612.36,1408.665,602.666,1409.826,589.413Zm23.013-9.126c-6.029-.527-10.191,2.906-10.761,9.439-.612,6.971,2.761,11.823,8.98,12.367,6.154.539,10.385-2.952,10.949-9.421C1442.623,585.637,1439.119,580.837,1432.839,580.287Z" fill="#00df7c" stroke="#1c1534" stroke-linecap="round" stroke-linejoin="round" stroke-width="1"/><path d="M1472.3,602.411c-8.48-.742-13.58-6.821-12.849-15.175.757-8.668,6.769-13.711,15.185-12.975s13.58,6.821,12.85,15.175C1486.728,598.1,1480.654,603.142,1472.3,602.411Zm6.039-13.333c.3-3.391-1.447-5.886-4.461-6.149-2.953-.258-5,1.461-5.281,4.664-.3,3.392,1.451,5.823,4.4,6.082S1478.058,592.281,1478.339,589.078Zm26.412-11.8-2.087-1.449-27.875,40.093,2.087,1.448Zm.4,42.5c-8.481-.742-13.58-6.821-12.85-15.175.758-8.667,6.768-13.711,15.184-12.975s13.58,6.821,12.85,15.175C1519.574,615.47,1513.5,620.509,1505.148,619.778Zm6.039-13.332c.3-3.392-1.447-5.886-4.463-6.15-2.951-.258-5,1.461-5.281,4.665-.3,3.391,1.453,5.823,4.4,6.081S1510.908,609.65,1511.187,606.446Z" fill="#00df7c" stroke="#1c1534" stroke-linecap="round" stroke-linejoin="round" stroke-width="1"/><path d="M1284.541,711.814c-28.361-48.876-68.1-231.946,24.749-334.22" fill="none" stroke="#1c1534" stroke-linecap="round" stroke-linejoin="round" stroke-width="1"/><path d="M1247.6,692.513l36.945,19.3,6.262-38.6" fill="none" stroke="#1c1534" stroke-linecap="round" stroke-linejoin="round" stroke-width="1"/><path d="M1711.821,438.622c-21.34,0-41.5,0-41.5-52.414a.537.537,0,1,0-1.072,0c0,52.414-20.157,52.414-41.5,52.414a.563.563,0,0,0,0,1.125c21.34,0,41.5,0,41.5,52.413a.537.537,0,1,0,1.072,0c0-52.413,20.157-52.413,41.5-52.413h.005a.563.563,0,0,0-.005-1.125Z" fill="#fff" stroke="#1c1534" stroke-miterlimit="10" stroke-width="1"/><path d="M1361.812,368.674c-21.341,0-41.5,0-41.5-52.413a.536.536,0,1,0-1.071,0c0,52.413-20.157,52.413-41.5,52.413a.564.564,0,0,0,0,1.126c21.34,0,41.5,0,41.5,52.413a.536.536,0,1,0,1.071,0c0-52.413,20.157-52.413,41.5-52.413h.005a.564.564,0,0,0,0-1.126Z" fill="#fff" stroke="#1c1534" stroke-miterlimit="10" stroke-width="1"/><path d="M1227.868,867.144c-21.341,0-41.5,0-41.5-52.414a.537.537,0,1,0-1.072,0c0,52.414-20.157,52.414-41.5,52.414a.563.563,0,0,0,0,1.125c21.34,0,41.5,0,41.5,52.413a.537.537,0,1,0,1.072,0c0-52.413,20.156-52.413,41.5-52.413h.006a.563.563,0,0,0-.005-1.125Z" fill="#fff" stroke="#1c1534" stroke-miterlimit="10" stroke-width="1"/><line x2="594.746" y2="52.033" transform="translate(1092.796 209.066)" fill="none" stroke="#1c1534" stroke-linecap="round" stroke-linejoin="round" stroke-width="1"/><path d="M1129.078,182.909c-.476,5.437,3.117,9.447,8.554,9.923,3.884.34,7.963-1.183,8.939-5.543.6.3,1.143.538,1.745.81-1.124,5.694-6.456,7.231-11.085,6.826a10.945,10.945,0,0,1-10.36-12.209c.614-7.021,5.974-10.309,12.467-9.741,4.755.416,8.816,3.026,9.674,7.89l-1.93.583c-.8-3.733-4.008-6.08-7.986-6.428C1133.784,174.555,1129.567,177.317,1129.078,182.909Z" fill="#1c1534"/><path d="M1153.943,185.367c.6-6.836,5.328-10.805,11.915-10.229,6.619.579,10.676,5.38,10.1,11.936-.6,6.836-5.359,10.8-11.946,10.225C1157.4,196.721,1153.37,191.922,1153.943,185.367Zm11.738-8.209c-5.344-.467-9.125,2.677-9.611,8.239-.482,5.5,2.742,9.443,8.117,9.914,5.312.465,9.125-2.677,9.612-8.238C1174.28,181.574,1171.056,177.629,1165.681,177.158Z" fill="#1c1534"/><path d="M1203.01,199.991l-2.237-.195-14.78-18.92-1.532,17.492-2.05-.179,1.808-20.662,2.082.183,14.887,19.148,1.549-17.71,2.082.182Z" fill="#1c1534"/><path d="M1232.109,183.784l-9.911-.867-1.629,18.61-2.082-.182,1.629-18.611-9.88-.864.179-2.051,21.873,1.914Z" fill="#1c1534"/><path d="M1248.6,196.749l-11.558-1.012-4.2,6.865-2.237-.2c4.024-6.629,8.08-13.256,12.1-19.917l2.579.226,8.495,21.719-2.239-.2Zm-10.387-2.944,9.57.837-3.834-9.853-.248-.022C1242.5,186.7,1241.213,188.9,1238.216,193.8Z" fill="#1c1534"/><path d="M1281.543,186.012c6.153.538,10,4.851,9.494,10.661-.549,6.276-5.027,10.581-11.335,10.028l-10.222-.894,1.808-20.661C1274.706,185.444,1278.125,185.713,1281.543,186.012Zm-2.229,18.683c5.376.471,9.023-2.936,9.477-8.125.416-4.753-2.729-8.159-7.981-8.619-3.075-.269-6.063-.467-7.647-.606l-1.46,16.684Z" fill="#1c1534"/><path d="M1316.4,209.912l-18.985-1.661,1.808-20.662,18.4,1.61-.18,2.051-16.374-1.433-.612,6.991,13.857,1.213-.182,2.081-13.857-1.213-.658,7.519,16.965,1.485Z" fill="#1c1534"/><path d="M1350.052,212.857l-17.368-1.52,1.809-20.662,2.05.18-1.631,18.642,15.317,1.34Z" fill="#1c1534"/><path d="M1355.725,205.651l1.139-13.018,2.051.179-1.106,12.646c-.359,4.1,2.242,6.927,7.4,7.379,5.127.448,8.18-1.883,8.539-5.985l1.106-12.645,2.082.182-1.14,13.018c-.437,5-4.493,8.06-10.768,7.512S1355.288,210.654,1355.725,205.651Z" fill="#1c1534"/><path d="M1383.03,194.922l18.8,1.645c.238.49.443,1.009.65,1.5-5.993,5.174-12.13,10.554-18.065,15.764l17.4,1.522-.177,2.02-20.134-1.762c-.2-.519-.345-1.063-.517-1.61l17.774-15.633-15.907-1.392Z" fill="#1c1534"/><path d="M1655.576,698.429c-17.109-18.328-13.326-49.205,7.954-69.1,21.008-19.97,51.365-21.449,68.3-3.169,17.208,18.356,14.671,49.574-6.163,69.591C1704.561,715.694,1672.958,716.832,1655.576,698.429Z" fill="#fff" stroke="#1c1633" stroke-linecap="round" stroke-linejoin="round" stroke-width="1"/><path d="M1649.274,693.51c-17.109-18.328-13.326-49.205,7.954-69.1,21.008-19.97,51.365-21.449,68.3-3.169,17.208,18.356,14.671,49.574-6.163,69.591C1698.259,710.775,1666.656,711.913,1649.274,693.51Z" fill="#fff" stroke="#1c1633" stroke-linecap="round" stroke-linejoin="round" stroke-width="1"/><path d="M1705.873,646.52a5.728,5.728,0,0,1-6.809,3.021,34.034,34.034,0,0,0-9.209-2.125c-3.754-.168-7.343.353-7.543,1.4-.944,4.947,27.283,1.9,24.7,16.256-1.77,9.847-9.543,13.8-17.527,14.711h0a6.055,6.055,0,0,1-6.025,4.861l-1.27-.061a4.335,4.335,0,0,1-4.108-5.339h0a38.039,38.039,0,0,1-10.2-2.875,4.5,4.5,0,0,1-2.014-6.141l1.05-2.373c1.256-2.843,4.546-4.381,7.155-3.339a40.567,40.567,0,0,0,11.5,2.9c4.452.206,8.309-.826,8.572-2.253.6-3.227-28.206-.694-25.167-16.186,1.689-8.607,10.167-12.238,17.39-13.283l.086-.45a6.059,6.059,0,0,1,5.942-4.883l1.171.05a4.293,4.293,0,0,1,4.026,5.317l-.126.675a42.532,42.532,0,0,1,7.018,1.743c2.615.892,3.647,3.928,2.255,6.67Z" fill="#00e082" stroke="#1c1633" stroke-linecap="round" stroke-linejoin="round" stroke-width="1"/></g></svg>